<?xml version="1.0" encoding="UTF-8"?>
<!DOCTYPE svg PUBLIC "-//W3C//DTD SVG 1.1//EN" "http://www.w3.org/Graphics/SVG/1.1/DTD/svg11.dtd">
<svg xmlns="http://www.w3.org/2000/svg" version="1.1" width="2500px" height="894px" style="shape-rendering:geometricPrecision; text-rendering:geometricPrecision; image-rendering:optimizeQuality; fill-rule:evenodd; clip-rule:evenodd" xmlns:xlink="http://www.w3.org/1999/xlink">
<g><path style="opacity:1" fill="#f3f8ef" d="M 775.5,136.5 C 826.195,132.006 874.195,141.173 919.5,164C 962.741,190.932 992.241,228.765 1008,277.5C 1015.73,303.597 1019.73,330.264 1020,357.5C 1020.5,373.163 1020.67,388.83 1020.5,404.5C 913.165,404.167 805.831,404.5 698.5,405.5C 704.824,482.319 746.491,518.152 823.5,513C 855.943,509.2 879.61,492.867 894.5,464C 934.499,463.5 974.499,463.333 1014.5,463.5C 1012.48,480.398 1006.98,496.065 998,510.5C 959.221,570.829 903.721,603.329 831.5,608C 761.58,614.686 699.58,596.019 645.5,552C 615.957,525.098 597.123,491.931 589,452.5C 581.474,414.14 579.474,375.473 583,336.5C 586.453,291.631 601.12,250.965 627,214.5C 665.34,167.577 714.84,141.577 775.5,136.5 Z M 784.5,234.5 C 814.29,230.885 841.29,237.718 865.5,255C 886.874,273.923 897.874,297.756 898.5,326.5C 832.83,326.833 767.163,326.5 701.5,325.5C 705.165,302.517 713.998,281.85 728,263.5C 743.409,247.046 762.242,237.379 784.5,234.5 Z"/></g>
<g><path style="opacity:1" fill="#f3f8ef" d="M 1189.5,136.5 C 1221.78,134.856 1253.78,137.023 1285.5,143C 1311.88,148.695 1336.21,159.028 1358.5,174C 1387.43,198.008 1404.26,228.842 1409,266.5C 1409.87,272.842 1410.7,279.176 1411.5,285.5C 1372.5,285.5 1333.5,285.5 1294.5,285.5C 1290.42,249.252 1270.08,229.752 1233.5,227C 1221.17,226.333 1208.83,226.333 1196.5,227C 1182.31,227.729 1169.64,232.395 1158.5,241C 1142.28,257.96 1142.62,274.627 1159.5,291C 1171.99,297.052 1184.99,301.719 1198.5,305C 1230.72,313.176 1263.05,320.843 1295.5,328C 1328.74,335.955 1358.74,350.289 1385.5,371C 1411.15,394.809 1423.81,424.309 1423.5,459.5C 1421.73,522.402 1392.06,566.235 1334.5,591C 1308.06,600.888 1280.73,606.554 1252.5,608C 1207.81,611.719 1163.81,607.385 1120.5,595C 1053.94,570.418 1019.28,522.585 1016.5,451.5C 1056.17,451.5 1095.83,451.5 1135.5,451.5C 1137.67,488.842 1157.34,510.009 1194.5,515C 1219.23,518.602 1243.9,518.268 1268.5,514C 1277.95,511.609 1286.61,507.609 1294.5,502C 1307.27,488.367 1308.77,473.534 1299,457.5C 1292.91,450.536 1285.41,445.702 1276.5,443C 1269.23,440.465 1261.89,438.132 1254.5,436C 1216.2,425.843 1177.87,415.843 1139.5,406C 1112.21,398.521 1087.21,386.521 1064.5,370C 1044.01,352.235 1032.84,329.735 1031,302.5C 1027.13,240.397 1051.63,193.23 1104.5,161C 1131.28,147.059 1159.61,138.892 1189.5,136.5 Z"/></g>
<g><path style="opacity:1" fill="#f3f8ef" d="M 337.5,138.5 C 393.784,133.769 447.45,143.269 498.5,167C 523.706,180.899 540.206,201.733 548,229.5C 550.504,239.359 552.17,249.359 553,259.5C 553.065,352.842 553.732,446.175 555,539.5C 554.982,556.294 562.482,568.294 577.5,575.5C 578.496,581.798 578.83,588.132 578.5,594.5C 536.165,594.667 493.832,594.5 451.5,594C 448.94,587.653 446.773,581.153 445,574.5C 443.325,564.406 441.659,554.406 440,544.5C 386.019,603.153 320.519,621.653 243.5,600C 187.191,577.637 159.524,535.971 160.5,475C 159.694,411.864 188.361,368.531 246.5,345C 261.82,339.45 277.486,335.116 293.5,332C 328.916,327.157 364.249,321.823 399.5,316C 434.136,307.227 444.636,286.394 431,253.5C 422.33,242.242 410.83,235.742 396.5,234C 375.821,230.72 355.154,230.72 334.5,234C 315.995,237.842 302.828,248.342 295,265.5C 291.408,274.203 288.908,283.203 287.5,292.5C 249.833,292.5 212.167,292.5 174.5,292.5C 175.735,257.629 186.235,225.963 206,197.5C 229.569,169.654 259.403,152.154 295.5,145C 309.551,142.209 323.551,140.042 337.5,138.5 Z M 435.5,378.5 C 436.662,396.329 436.829,414.329 436,432.5C 434.015,477.471 411.515,506.304 368.5,519C 351.714,523.646 334.714,524.646 317.5,522C 288.02,513.249 274.853,493.416 278,462.5C 280.034,439.599 291.534,423.433 312.5,414C 317.091,412.136 321.757,410.47 326.5,409C 354.15,402.892 381.817,396.892 409.5,391C 418.898,388.132 427.565,383.966 435.5,378.5 Z"/></g>
<g><path style="opacity:1" fill="#f3f8ef" d="M 2089.5,138.5 C 2145.78,133.769 2199.45,143.269 2250.5,167C 2275.71,180.899 2292.21,201.733 2300,229.5C 2302.5,239.359 2304.17,249.359 2305,259.5C 2305.07,352.842 2305.73,446.175 2307,539.5C 2306.98,556.294 2314.48,568.294 2329.5,575.5C 2330.5,581.798 2330.83,588.132 2330.5,594.5C 2288.17,594.667 2245.83,594.5 2203.5,594C 2200.94,587.653 2198.77,581.153 2197,574.5C 2195.33,564.406 2193.66,554.406 2192,544.5C 2134.37,606.45 2065.53,623.617 1985.5,596C 1935.64,571.393 1911.3,531.059 1912.5,475C 1911.69,411.864 1940.36,368.531 1998.5,345C 2013.82,339.45 2029.49,335.116 2045.5,332C 2080.92,327.157 2116.25,321.823 2151.5,316C 2186.14,307.227 2196.64,286.394 2183,253.5C 2174.33,242.242 2162.83,235.742 2148.5,234C 2127.82,230.72 2107.15,230.72 2086.5,234C 2067.99,237.842 2054.83,248.342 2047,265.5C 2043.41,274.203 2040.91,283.203 2039.5,292.5C 2001.83,292.5 1964.17,292.5 1926.5,292.5C 1927.73,257.629 1938.23,225.963 1958,197.5C 1981.57,169.654 2011.4,152.154 2047.5,145C 2061.55,142.209 2075.55,140.042 2089.5,138.5 Z M 2187.5,378.5 C 2188.66,396.329 2188.83,414.329 2188,432.5C 2186.02,477.471 2163.52,506.304 2120.5,519C 2103.71,523.646 2086.71,524.646 2069.5,522C 2040.02,513.249 2026.85,493.416 2030,462.5C 2032.03,439.599 2043.53,423.433 2064.5,414C 2069.09,412.136 2073.76,410.47 2078.5,409C 2106.15,402.892 2133.82,396.892 2161.5,391C 2170.9,388.132 2179.57,383.966 2187.5,378.5 Z"/></g>
<g><path style="opacity:1" fill="#f3f8ef" d="M 1692.5,139.5 C 1775.89,134.596 1836.73,168.93 1875,242.5C 1891.29,282.059 1899.12,323.226 1898.5,366C 1899.12,411.334 1891.29,455.168 1875,497.5C 1835.67,579.109 1770.84,614.942 1680.5,605C 1647.6,600.472 1620.44,585.638 1599,560.5C 1593.75,553.676 1588.75,546.676 1584,539.5C 1583.5,615.833 1583.33,692.166 1583.5,768.5C 1545.17,768.5 1506.83,768.5 1468.5,768.5C 1468.5,561.833 1468.5,355.167 1468.5,148.5C 1505.83,148.5 1543.17,148.5 1580.5,148.5C 1580.33,169.169 1580.5,189.836 1581,210.5C 1607.17,169.485 1644.34,145.818 1692.5,139.5 Z M 1663.5,241.5 C 1712.39,235.673 1745.89,255.34 1764,300.5C 1779.69,343.488 1781.69,387.154 1770,431.5C 1752.34,492.912 1712.17,517.412 1649.5,505C 1621.67,495.838 1602.17,477.671 1591,450.5C 1582.9,427.715 1579.06,404.215 1579.5,380C 1578.91,350.093 1584.08,321.259 1595,293.5C 1608.54,263.783 1631.37,246.45 1663.5,241.5 Z"/></g>
</svg>
